# xmcd
#
# Track frame offsets:
# 150
# 14488
# 28767
# 47349
# 65106
# 80744
# 100331
# 115199
# 133832
# 152763
# 170714
# 189483
# 222085
#
# Disc length: 3285 seconds
#
# Revision: 1
# Processed by: cddbd v1.5.1PL0 Copyright (c) Steve Scherf et al.
# Submitted via: CedeCatalogueitor 2.6.0.6 http://personales.ya.com/cdcatalogueitor
#
DISCID=b80cd30d
DTITLE=Ella Baila Sola - Marta Y Marilia  FUNDAMENTALES  CD-3
DYEAR=2004
DGENRE=
TTITLE0=Claro Que Me Hace Falta Hablar
TTITLE1=Cómo Repartimos Los Amigos
TTITLE2=Superviviente
TTITLE3=Sin Confesarlo Todo
TTITLE4=Ella Baila Sola
TTITLE5=La Patera
TTITLE6=No Está Todo Perdido
TTITLE7=Calor Que Dar
TTITLE8=Seguro Que Sí
TTITLE9=Sólo He Perdido Un Minuto Contigo
TTITLE10=Mal Hotel
TTITLE11=Infinito
TTITLE12=--DATOS---
EXTD=
EXTT0=
EXTT1=
EXTT2=
EXTT3=
EXTT4=
EXTT5=
EXTT6=
EXTT7=
EXTT8=
EXTT9=
EXTT10=
EXTT11=
EXTT12=
PLAYORDER=
